<svg width="180" height="54" viewBox="0 0 180 54" fill="none" xmlns="http://www.w3.org/2000/svg">
<path d="M179 47.1435C179 49.9834 176.709 52.2837 173.874 52.2837H6.13243C3.2995 52.2837 1 49.9834 1 47.1435V6.15226C1 3.31376 3.2995 1.00537 6.13243 1.00537H173.873C176.709 1.00537 178.999 3.31376 178.999 6.15226L179 47.1435Z" fill="black"/>
<path d="M173.333 1.0675C176.42 1.0675 178.932 3.57709 178.932 6.66121V46.6281C178.932 49.7123 176.42 52.2219 173.333 52.2219H6.66667C3.58 52.2219 1.06833 49.7123 1.06833 46.6281V6.66121C1.06833 3.57709 3.58 1.0675 6.66667 1.0675H173.333ZM173.333 5.10331e-05H6.66667C3.00167 5.10331e-05 0 2.99924 0 6.66121V46.6281C0 50.2901 3.00167 53.2893 6.66667 53.2893H173.333C176.998 53.2893 180 50.2901 180 46.6281V6.66121C180 2.99924 176.998 5.10331e-05 173.333 5.10331e-05Z" fill="#A6A6A6"/>
<path d="M40.1707 26.3568C40.132 22.0631 43.6894 19.9741 43.852 19.8769C41.8374 16.942 38.7147 16.541 37.6174 16.509C34.9947 16.2332 32.4507 18.077 31.1147 18.077C29.752 18.077 27.6947 16.5356 25.4774 16.5809C22.624 16.6249 19.9547 18.2755 18.4907 20.8387C15.4694 26.0651 17.7227 33.7454 20.6174 37.9699C22.0654 40.0389 23.7574 42.349 25.972 42.2677C28.1387 42.1784 28.948 40.8875 31.5627 40.8875C34.1534 40.8875 34.9134 42.2677 37.172 42.2157C39.4974 42.1784 40.9614 40.1374 42.3587 38.0498C44.032 35.6785 44.704 33.3431 44.7307 33.2232C44.676 33.2045 40.2147 31.5033 40.1707 26.3568Z" fill="white"/>
<path d="M35.904 13.73C37.0694 12.2738 37.8667 10.2928 37.6454 8.28247C35.9587 8.35708 33.8494 9.44817 32.6347 10.8723C31.56 12.1273 30.6 14.1843 30.848 16.1187C32.7427 16.2599 34.688 15.1634 35.904 13.73Z" fill="white"/>
<path d="M71.5266 41.9705H68.4986L66.84 36.7629H61.0746L59.4946 41.9705H56.5466L62.2586 24.2412H65.7866L71.5266 41.9705ZM66.34 34.578L64.84 29.9485C64.6813 29.4755 64.384 28.3618 63.9453 26.6086H63.892C63.7173 27.3626 63.436 28.4764 63.0493 29.9485L61.576 34.578H66.34Z" fill="white"/>
<path d="M86.216 35.4214C86.216 37.5956 85.628 39.3141 84.452 40.5758C83.3987 41.6988 82.0907 42.2597 80.5293 42.2597C78.844 42.2597 77.6333 41.6549 76.896 40.4452H76.8427V47.1796H74V33.395C74 32.0282 73.964 30.6253 73.8947 29.1865H76.3947L76.5533 31.2128H76.6067C77.5547 29.6861 78.9933 28.9241 80.924 28.9241C82.4333 28.9241 83.6933 29.5196 84.7013 30.7119C85.712 31.9056 86.216 33.475 86.216 35.4214ZM83.32 35.5253C83.32 34.281 83.04 33.2552 82.4773 32.4478C81.8627 31.6059 81.0373 31.1849 80.0027 31.1849C79.3013 31.1849 78.664 31.4193 78.0947 31.8816C77.524 32.3479 77.1506 32.9567 76.976 33.7108C76.888 34.0625 76.844 34.3503 76.844 34.5767V36.7083C76.844 37.6382 77.1293 38.4229 77.7 39.0637C78.2707 39.7045 79.012 40.0242 79.924 40.0242C80.9947 40.0242 81.828 39.6112 82.424 38.7879C83.0213 37.9633 83.32 36.8762 83.32 35.5253Z" fill="white"/>
<path d="M100.932 35.4214C100.932 37.5956 100.344 39.3141 99.1666 40.5758C98.1146 41.6988 96.8066 42.2597 95.2453 42.2597C93.5599 42.2597 92.3493 41.6549 91.6133 40.4452H91.5599V47.1796H88.7173V33.395C88.7173 32.0282 88.6813 30.6253 88.6119 29.1865H91.1119L91.2706 31.2128H91.3239C92.2706 29.6861 93.7093 28.9241 95.6413 28.9241C97.1493 28.9241 98.4093 29.5196 99.4199 30.7119C100.427 31.9056 100.932 33.475 100.932 35.4214ZM98.0359 35.5253C98.0359 34.281 97.7546 33.2552 97.1919 32.4478C96.5773 31.6059 95.7546 31.1849 94.7186 31.1849C94.0159 31.1849 93.3799 31.4193 92.8093 31.8816C92.2386 32.3479 91.8666 32.9567 91.6919 33.7108C91.6053 34.0625 91.5599 34.3503 91.5599 34.5767V36.7083C91.5599 37.6382 91.8453 38.4229 92.4133 39.0637C92.9839 39.7032 93.7253 40.0242 94.6399 40.0242C95.7106 40.0242 96.5439 39.6112 97.1399 38.7879C97.7373 37.9633 98.0359 36.8762 98.0359 35.5253Z" fill="white"/>
<path d="M117.385 36.9987C117.385 38.5068 116.861 39.7338 115.809 40.681C114.653 41.7161 113.044 42.233 110.976 42.233C109.067 42.233 107.536 41.8653 106.377 41.1286L107.036 38.7612C108.284 39.5153 109.653 39.8936 111.145 39.8936C112.216 39.8936 113.049 39.6512 113.648 39.1689C114.244 38.6866 114.541 38.0392 114.541 37.2318C114.541 36.5124 114.296 35.9063 113.804 35.4147C113.315 34.9231 112.497 34.4661 111.356 34.0438C108.249 32.8861 106.697 31.1902 106.697 28.96C106.697 27.5025 107.241 26.3075 108.331 25.3776C109.416 24.4464 110.864 23.9814 112.675 23.9814C114.289 23.9814 115.631 24.2625 116.701 24.8234L115.991 27.1388C114.991 26.5953 113.86 26.3235 112.595 26.3235C111.595 26.3235 110.813 26.57 110.253 27.0602C109.78 27.4985 109.543 28.0328 109.543 28.6656C109.543 29.3663 109.813 29.9458 110.357 30.4015C110.831 30.8225 111.691 31.2781 112.939 31.7697C114.465 32.3838 115.587 33.1019 116.308 33.9252C117.027 34.7459 117.385 35.773 117.385 36.9987Z" fill="white"/>
<path d="M126.784 31.3179H123.651V37.5248C123.651 39.1035 124.203 39.8922 125.309 39.8922C125.817 39.8922 126.239 39.8482 126.572 39.7603L126.651 41.9171C126.091 42.1263 125.353 42.2316 124.44 42.2316C123.317 42.2316 122.44 41.8892 121.807 41.2057C121.176 40.521 120.859 39.3726 120.859 37.7593V31.3152H118.992V29.1837H120.859V26.8429L123.651 26.001V29.1837H126.784V31.3179Z" fill="white"/>
<path d="M140.921 35.4732C140.921 37.4383 140.359 39.0516 139.236 40.3132C138.059 41.6121 136.496 42.2596 134.548 42.2596C132.671 42.2596 131.176 41.6374 130.061 40.3931C128.947 39.1488 128.389 37.5781 128.389 35.685C128.389 33.704 128.963 32.0814 130.113 30.8197C131.261 29.5568 132.811 28.9253 134.759 28.9253C136.636 28.9253 138.147 29.5474 139.287 30.7931C140.377 32.0014 140.921 33.5615 140.921 35.4732ZM137.972 35.5651C137.972 34.3861 137.72 33.3749 137.209 32.5316C136.613 31.5112 135.761 31.0022 134.657 31.0022C133.515 31.0022 132.647 31.5125 132.051 32.5316C131.54 33.3763 131.288 34.4034 131.288 35.6184C131.288 36.7974 131.54 37.8086 132.051 38.6506C132.665 39.6711 133.524 40.18 134.632 40.18C135.717 40.18 136.569 39.6604 137.184 38.6239C137.708 37.7646 137.972 36.7428 137.972 35.5651Z" fill="white"/>
<path d="M150.161 31.6845C149.88 31.6325 149.58 31.6059 149.265 31.6059C148.265 31.6059 147.492 31.9829 146.948 32.7382C146.475 33.4044 146.237 34.2463 146.237 35.2628V41.9706H143.396L143.423 33.2125C143.423 31.7391 143.387 30.3975 143.316 29.1879H145.792L145.896 31.6338H145.975C146.275 30.7932 146.748 30.1164 147.396 29.6088C148.029 29.1519 148.713 28.9241 149.451 28.9241C149.713 28.9241 149.951 28.9427 150.161 28.976V31.6845Z" fill="white"/>
<path d="M162.875 34.9738C162.875 35.4827 162.841 35.9117 162.771 36.2621H154.243C154.276 37.525 154.688 38.4909 155.48 39.157C156.199 39.7525 157.128 40.0509 158.269 40.0509C159.532 40.0509 160.684 39.8498 161.72 39.4461L162.165 41.4178C160.955 41.9454 159.525 42.2078 157.876 42.2078C155.892 42.2078 154.335 41.6243 153.201 40.4586C152.071 39.2929 151.504 37.7275 151.504 35.7638C151.504 33.8361 152.031 32.2307 153.085 30.9504C154.189 29.5836 155.681 28.9001 157.559 28.9001C159.403 28.9001 160.799 29.5836 161.747 30.9504C162.497 32.0362 162.875 33.3791 162.875 34.9738ZM160.164 34.2371C160.183 33.3951 159.997 32.6677 159.612 32.0535C159.12 31.2635 158.364 30.8692 157.347 30.8692C156.417 30.8692 155.661 31.2542 155.084 32.0269C154.611 32.6411 154.329 33.3778 154.243 34.2357H160.164V34.2371Z" fill="white"/>
<path d="M65.4 13.3345C65.4 14.9025 64.9293 16.0828 63.9893 16.8755C63.1186 17.6069 61.8813 17.9733 60.2786 17.9733C59.484 17.9733 58.804 17.9386 58.2346 17.8694V9.30179C58.9773 9.18189 59.7773 9.12061 60.6413 9.12061C62.168 9.12061 63.3186 9.45233 64.0946 10.1158C64.964 10.8658 65.4 11.9383 65.4 13.3345ZM63.9266 13.3731C63.9266 12.3566 63.6573 11.5772 63.1186 11.0337C62.58 10.4915 61.7933 10.2197 60.7573 10.2197C60.3173 10.2197 59.9426 10.249 59.632 10.3103V16.8236C59.804 16.8502 60.1186 16.8622 60.576 16.8622C61.6453 16.8622 62.4706 16.5651 63.052 15.9709C63.6333 15.3768 63.9266 14.5108 63.9266 13.3731Z" fill="white"/>
<path d="M73.2119 14.7038C73.2119 15.6697 72.9359 16.461 72.3839 17.0818C71.8052 17.72 71.0386 18.0384 70.0812 18.0384C69.1586 18.0384 68.4239 17.7333 67.8759 17.1205C67.3292 16.509 67.0559 15.7376 67.0559 14.8077C67.0559 13.8352 67.3372 13.0372 67.9026 12.4177C68.4679 11.7982 69.2279 11.4878 70.1852 11.4878C71.1079 11.4878 71.8492 11.7929 72.4106 12.4044C72.9439 12.9985 73.2119 13.7659 73.2119 14.7038ZM71.7626 14.7491C71.7626 14.1696 71.6372 13.6727 71.3879 13.2583C71.0946 12.7574 70.6772 12.5069 70.1346 12.5069C69.5732 12.5069 69.1466 12.7574 68.8532 13.2583C68.6026 13.6727 68.4786 14.1776 68.4786 14.7744C68.4786 15.3539 68.6039 15.8508 68.8532 16.2652C69.1559 16.7661 69.5772 17.0166 70.1212 17.0166C70.6546 17.0166 71.0732 16.7621 71.3746 16.2519C71.6332 15.8295 71.7626 15.3286 71.7626 14.7491Z" fill="white"/>
<path d="M83.6866 11.6157L81.72 17.8959H80.44L79.6253 15.1688C79.4186 14.488 79.2506 13.8112 79.12 13.1398H79.0946C78.9733 13.8299 78.8053 14.5053 78.5893 15.1688L77.724 17.8959H76.4293L74.58 11.6157H76.016L76.7266 14.6013C76.8986 15.3073 77.04 15.9801 77.1533 16.6169H77.1786C77.2826 16.092 77.4546 15.4232 77.6973 14.6146L78.5893 11.6171H79.728L80.5826 14.5506C80.7893 15.266 80.9573 15.9548 81.0866 16.6183H81.1253C81.22 15.9721 81.3626 15.2834 81.552 14.5506L82.3146 11.6171H83.6866V11.6157Z" fill="white"/>
<path d="M90.9306 17.8959H89.5333V14.2989C89.5333 13.1905 89.1119 12.6363 88.2666 12.6363C87.8519 12.6363 87.5173 12.7881 87.2573 13.0932C86.9999 13.3983 86.8693 13.758 86.8693 14.1697V17.8946H85.4719V13.4103C85.4719 12.8588 85.4546 12.2606 85.4213 11.6131H86.6493L86.7146 12.595H86.7533C86.9159 12.2899 87.1586 12.0381 87.4773 11.8369C87.8559 11.6025 88.2799 11.4839 88.7439 11.4839C89.3306 11.4839 89.8186 11.6731 90.2066 12.0527C90.6892 12.5177 90.9306 13.2118 90.9306 14.1337V17.8959Z" fill="white"/>
<path d="M94.7839 17.8959H93.3879V8.73413H94.7839V17.8959Z" fill="white"/>
<path d="M103.011 14.7038C103.011 15.6697 102.735 16.461 102.183 17.0818C101.604 17.72 100.836 18.0384 99.88 18.0384C98.956 18.0384 98.2213 17.7333 97.6746 17.1205C97.1279 16.509 96.8546 15.7376 96.8546 14.8077C96.8546 13.8352 97.136 13.0372 97.7013 12.4177C98.2666 11.7982 99.0266 11.4878 99.9826 11.4878C100.907 11.4878 101.647 11.7929 102.209 12.4044C102.743 12.9985 103.011 13.7659 103.011 14.7038ZM101.56 14.7491C101.56 14.1696 101.435 13.6727 101.185 13.2583C100.893 12.7574 100.475 12.5069 99.9333 12.5069C99.3706 12.5069 98.9439 12.7574 98.6519 13.2583C98.4013 13.6727 98.2773 14.1776 98.2773 14.7744C98.2773 15.3539 98.4026 15.8508 98.6519 16.2652C98.9546 16.7661 99.376 17.0166 99.92 17.0166C100.453 17.0166 100.871 16.7621 101.172 16.2519C101.432 15.8295 101.56 15.3286 101.56 14.7491Z" fill="white"/>
<path d="M109.773 17.8958H108.519L108.415 17.1724H108.376C107.947 17.7493 107.335 18.0384 106.54 18.0384C105.947 18.0384 105.467 17.8479 105.105 17.4695C104.777 17.1258 104.613 16.6981 104.613 16.1906C104.613 15.4232 104.933 14.8384 105.577 14.4334C106.22 14.0284 107.124 13.8299 108.288 13.8392V13.7219C108.288 12.8946 107.853 12.4816 106.983 12.4816C106.363 12.4816 105.816 12.6375 105.344 12.9466L105.06 12.03C105.644 11.669 106.365 11.4878 107.216 11.4878C108.859 11.4878 109.683 12.3537 109.683 14.0856V16.3984C109.683 17.0259 109.713 17.5255 109.773 17.8958ZM108.323 15.7376V14.7691C106.781 14.7424 106.011 15.1648 106.011 16.0347C106.011 16.3624 106.099 16.6076 106.279 16.7714C106.459 16.9353 106.688 17.0166 106.961 17.0166C107.268 17.0166 107.555 16.9193 107.816 16.7261C108.079 16.5316 108.24 16.2852 108.3 15.9827C108.315 15.9148 108.323 15.8322 108.323 15.7376Z" fill="white"/>
<path d="M117.713 17.8959H116.473L116.408 16.8874H116.369C115.973 17.6548 115.299 18.0384 114.351 18.0384C113.593 18.0384 112.963 17.7413 112.463 17.1472C111.963 16.553 111.713 15.7816 111.713 14.8344C111.713 13.8179 111.984 12.9946 112.528 12.3658C113.055 11.7796 113.7 11.4865 114.468 11.4865C115.312 11.4865 115.903 11.7703 116.239 12.3391H116.265V8.73413H117.664V16.204C117.664 16.8154 117.68 17.379 117.713 17.8959ZM116.265 15.2474V14.2003C116.265 14.0191 116.252 13.8725 116.227 13.7606C116.148 13.4249 115.979 13.1425 115.721 12.9147C115.461 12.6869 115.148 12.5723 114.787 12.5723C114.265 12.5723 113.857 12.7788 113.557 13.1931C113.26 13.6074 113.109 14.1363 113.109 14.7825C113.109 15.4033 113.252 15.9069 113.539 16.2945C113.841 16.7075 114.249 16.914 114.76 16.914C115.219 16.914 115.585 16.7422 115.864 16.3971C116.133 16.0787 116.265 15.695 116.265 15.2474Z" fill="white"/>
<path d="M129.664 14.7038C129.664 15.6697 129.388 16.461 128.836 17.0818C128.257 17.72 127.492 18.0384 126.533 18.0384C125.612 18.0384 124.877 17.7333 124.328 17.1205C123.781 16.509 123.508 15.7376 123.508 14.8077C123.508 13.8352 123.789 13.0372 124.355 12.4177C124.92 11.7982 125.68 11.4878 126.639 11.4878C127.56 11.4878 128.303 11.7929 128.863 12.4044C129.396 12.9985 129.664 13.7659 129.664 14.7038ZM128.216 14.7491C128.216 14.1696 128.091 13.6727 127.841 13.2583C127.547 12.7574 127.131 12.5069 126.587 12.5069C126.027 12.5069 125.6 12.7574 125.305 13.2583C125.055 13.6727 124.931 14.1776 124.931 14.7744C124.931 15.3539 125.056 15.8508 125.305 16.2652C125.608 16.7661 126.029 17.0166 126.573 17.0166C127.107 17.0166 127.527 16.7621 127.828 16.2519C128.085 15.8295 128.216 15.3286 128.216 14.7491Z" fill="white"/>
<path d="M137.177 17.8959H135.781V14.2989C135.781 13.1905 135.36 12.6363 134.513 12.6363C134.099 12.6363 133.764 12.7881 133.505 13.0932C133.247 13.3983 133.117 13.758 133.117 14.1697V17.8946H131.719V13.4103C131.719 12.8588 131.703 12.2606 131.669 11.6131H132.896L132.961 12.595H133C133.164 12.2899 133.407 12.0381 133.724 11.8369C134.104 11.6025 134.527 11.4839 134.992 11.4839C135.577 11.4839 136.065 11.6731 136.453 12.0527C136.937 12.5177 137.177 13.2118 137.177 14.1337V17.8959Z" fill="white"/>
<path d="M146.581 12.6616H145.043V15.7124C145.043 16.4878 145.316 16.8754 145.857 16.8754C146.108 16.8754 146.316 16.8541 146.48 16.8102L146.516 17.8693C146.24 17.9732 145.877 18.0252 145.431 18.0252C144.879 18.0252 144.449 17.8573 144.139 17.5216C143.827 17.1859 143.672 16.621 143.672 15.8283V12.6616H142.753V11.6158H143.672V10.4647L145.041 10.0518V11.6145H146.58V12.6616H146.581Z" fill="white"/>
<path d="M153.979 17.8959H152.58V14.3255C152.58 13.1998 152.159 12.6362 151.315 12.6362C150.667 12.6362 150.224 12.9626 149.981 13.6154C149.94 13.7526 149.916 13.9205 149.916 14.1177V17.8946H148.52V8.73413H149.916V12.519H149.943C150.383 11.8302 151.013 11.4865 151.831 11.4865C152.409 11.4865 152.888 11.6757 153.268 12.0554C153.741 12.5283 153.979 13.2317 153.979 14.1616V17.8959Z" fill="white"/>
<path d="M161.609 14.4587C161.609 14.7092 161.591 14.9196 161.557 15.0915H157.367C157.385 15.7123 157.585 16.1853 157.973 16.513C158.328 16.8061 158.785 16.9526 159.345 16.9526C159.965 16.9526 160.531 16.854 161.04 16.6555L161.259 17.6254C160.663 17.8839 159.961 18.0131 159.149 18.0131C158.176 18.0131 157.409 17.7267 156.855 17.1538C156.297 16.5809 156.021 15.8122 156.021 14.8477C156.021 13.9005 156.279 13.1118 156.797 12.483C157.339 11.8116 158.071 11.4758 158.995 11.4758C159.899 11.4758 160.585 11.8116 161.049 12.483C161.424 13.0159 161.609 13.6753 161.609 14.4587ZM160.276 14.0977C160.287 13.6833 160.195 13.3263 160.005 13.0252C159.763 12.6375 159.393 12.443 158.893 12.443C158.437 12.443 158.065 12.6322 157.781 13.0119C157.549 13.3143 157.412 13.6753 157.367 14.0977H160.276Z" fill="white"/>
</svg>
