<svg width="180" height="54" viewBox="0 0 180 54" fill="none" xmlns="http://www.w3.org/2000/svg">
<path d="M173.095 53.2893H6.6575C2.99754 53.2893 0 50.2901 0 46.6281V6.66121C0 2.99924 2.99754 5.10331e-05 6.6575 5.10331e-05H173.095C176.755 5.10331e-05 179.753 2.99924 179.753 6.66121V46.6281C179.753 50.2901 176.755 53.2893 173.095 53.2893Z" fill="black"/>
<path d="M173.095 1.0675C176.177 1.0675 178.686 3.57709 178.686 6.66121V46.6281C178.686 49.7123 176.177 52.2219 173.095 52.2219H6.6575C3.57508 52.2219 1.06686 49.7123 1.06686 46.6281V6.66121C1.06686 3.57709 3.57508 1.0675 6.6575 1.0675H173.095ZM173.095 5.10331e-05H6.6575C2.99754 5.10331e-05 0 2.99924 0 6.66121V46.6281C0 50.2901 2.99754 53.2893 6.6575 53.2893H173.095C176.755 53.2893 179.753 50.2901 179.753 46.6281V6.66121C179.753 2.99924 176.755 5.10331e-05 173.095 5.10331e-05Z" fill="#A6A6A6"/>
<path d="M63.1364 13.647C63.1364 14.7594 62.8035 15.6504 62.1478 16.3148C61.3938 17.1025 60.4118 17.4988 59.2085 17.4988C58.0584 17.4988 57.0764 17.0958 56.2708 16.3015C55.4636 15.4955 55.0609 14.5063 55.0609 13.3223C55.0609 12.1383 55.4636 11.1491 56.2708 10.3498C57.0764 9.54875 58.0584 9.14575 59.2085 9.14575C59.781 9.14575 60.3269 9.26399 60.8479 9.48381C61.3672 9.70529 61.7899 10.005 62.0962 10.3747L61.4005 11.0775C60.8662 10.4463 60.1389 10.1349 59.2085 10.1349C58.3696 10.1349 57.6423 10.428 57.0248 11.0192C56.414 11.612 56.1077 12.3797 56.1077 13.3223C56.1077 14.2649 56.414 15.0392 57.0248 15.6321C57.6423 16.2166 58.3696 16.5163 59.2085 16.5163C60.0989 16.5163 60.8479 16.2166 61.4387 15.6254C61.8282 15.234 62.0496 14.6945 62.1078 14.0051H59.2085V13.0425H63.0765C63.1231 13.2507 63.1364 13.4522 63.1364 13.647Z" fill="white" stroke="white" stroke-width="0.16" stroke-miterlimit="10"/>
<path d="M69.2729 10.31H65.6396V12.8412H68.9151V13.8037H65.6396V16.335H69.2729V17.3158H64.611V9.3291H69.2729V10.31Z" fill="white" stroke="white" stroke-width="0.16" stroke-miterlimit="10"/>
<path d="M73.6037 17.3158H72.5751V10.31H70.3465V9.3291H75.8339V10.31H73.6037V17.3158Z" fill="white" stroke="white" stroke-width="0.16" stroke-miterlimit="10"/>
<path d="M79.8051 17.3158V9.3291H80.832V17.3158H79.8051Z" fill="white" stroke="white" stroke-width="0.16" stroke-miterlimit="10"/>
<path d="M85.3841 17.3158H84.3639V10.31H82.127V9.3291H87.621V10.31H85.3841V17.3158Z" fill="white" stroke="white" stroke-width="0.16" stroke-miterlimit="10"/>
<path d="M98.0101 16.2882C97.2229 17.0958 96.2475 17.4988 95.0841 17.4988C93.9141 17.4988 92.9388 17.0958 92.1515 16.2882C91.3659 15.4822 90.9748 14.493 90.9748 13.3223C90.9748 12.1516 91.3659 11.1624 92.1515 10.3564C92.9388 9.54875 93.9141 9.14575 95.0841 9.14575C96.2409 9.14575 97.2162 9.54875 98.0035 10.3631C98.7957 11.1757 99.1868 12.1583 99.1868 13.3223C99.1868 14.493 98.7957 15.4822 98.0101 16.2882ZM92.9121 15.6187C93.5046 16.2166 94.2253 16.5163 95.0841 16.5163C95.9363 16.5163 96.6636 16.2166 97.2495 15.6187C97.8403 15.0209 98.1399 14.2532 98.1399 13.3223C98.1399 12.3914 97.8403 11.6237 97.2495 11.0259C96.6636 10.428 95.9363 10.1283 95.0841 10.1283C94.2253 10.1283 93.5046 10.428 92.9121 11.0259C92.3213 11.6237 92.0217 12.3914 92.0217 13.3223C92.0217 14.2532 92.3213 15.0209 92.9121 15.6187Z" fill="white" stroke="white" stroke-width="0.16" stroke-miterlimit="10"/>
<path d="M100.63 17.3158V9.3291H101.878L105.759 15.5406H105.804L105.759 14.0052V9.3291H106.786V17.3158H105.714L101.65 10.7979H101.605L101.65 12.3399V17.3158H100.63Z" fill="white" stroke="white" stroke-width="0.16" stroke-miterlimit="10"/>
<path d="M90.7218 28.9794C87.5944 28.9794 85.0396 31.3608 85.0396 34.6464C85.0396 37.9054 87.5944 40.3117 90.7218 40.3117C93.8558 40.3117 96.4106 37.9054 96.4106 34.6464C96.4106 31.3608 93.8558 28.9794 90.7218 28.9794ZM90.7218 38.0802C89.0058 38.0802 87.5295 36.6631 87.5295 34.6464C87.5295 32.6031 89.0058 31.2109 90.7218 31.2109C92.4377 31.2109 93.9207 32.6031 93.9207 34.6464C93.9207 36.6631 92.4377 38.0802 90.7218 38.0802ZM78.3238 28.9794C75.1898 28.9794 72.6417 31.3608 72.6417 34.6464C72.6417 37.9054 75.1898 40.3117 78.3238 40.3117C81.4562 40.3117 84.006 37.9054 84.006 34.6464C84.006 31.3608 81.4562 28.9794 78.3238 28.9794ZM78.3238 38.0802C76.6062 38.0802 75.1249 36.6631 75.1249 34.6464C75.1249 32.6031 76.6062 31.2109 78.3238 31.2109C80.0398 31.2109 81.5161 32.6031 81.5161 34.6464C81.5161 36.6631 80.0398 38.0802 78.3238 38.0802ZM63.5708 30.7163V33.1243H69.3179C69.1498 34.4699 68.7004 35.4591 68.0114 36.1485C67.1725 36.9811 65.866 37.9054 63.5708 37.9054C60.034 37.9054 57.2645 35.0494 57.2645 31.5107C57.2645 27.9719 60.034 25.116 63.5708 25.116C65.4832 25.116 66.8746 25.8637 67.9015 26.8329L69.5975 25.1359C68.1612 23.7637 66.2505 22.7096 63.5708 22.7096C58.7208 22.7096 54.6448 26.658 54.6448 31.5107C54.6448 36.3633 58.7208 40.3117 63.5708 40.3117C66.1922 40.3117 68.1612 39.4524 69.709 37.8404C71.2952 36.2534 71.7895 34.0219 71.7895 32.2201C71.7895 31.6605 71.7429 31.146 71.6597 30.7163H63.5708ZM123.898 32.5831C123.43 31.3158 121.987 28.9794 119.048 28.9794C116.135 28.9794 113.71 31.2759 113.71 34.6464C113.71 37.8204 116.11 40.3117 119.327 40.3117C121.929 40.3117 123.43 38.7247 124.048 37.8005L122.117 36.5132C121.473 37.4557 120.596 38.0802 119.327 38.0802C118.067 38.0802 117.164 37.5024 116.584 36.3633L124.159 33.2276L123.898 32.5831ZM116.175 34.4699C116.11 32.285 117.871 31.1659 119.133 31.1659C120.121 31.1659 120.96 31.6605 121.24 32.3683L116.175 34.4699ZM110.019 39.967H112.508V23.3141H110.019V39.967ZM105.941 30.2417H105.858C105.298 29.5789 104.232 28.9794 102.88 28.9794C100.044 28.9794 97.4508 31.4707 97.4508 34.6647C97.4508 37.8404 100.044 40.3117 102.88 40.3117C104.232 40.3117 105.298 39.7072 105.858 39.0244H105.941V39.8371C105.941 42.0036 104.784 43.1677 102.918 43.1677C101.397 43.1677 100.453 42.0686 100.064 41.1444L97.8986 42.0486C98.5227 43.5507 100.175 45.3992 102.918 45.3992C105.838 45.3992 108.301 43.6806 108.301 39.4991V29.3241H105.941V30.2417ZM103.093 38.0802C101.377 38.0802 99.9407 36.6431 99.9407 34.6647C99.9407 32.668 101.377 31.2109 103.093 31.2109C104.784 31.2109 106.117 32.668 106.117 34.6647C106.117 36.6431 104.784 38.0802 103.093 38.0802ZM135.555 23.3141H129.6V39.967H132.083V33.6572H135.555C138.313 33.6572 141.018 31.6605 141.018 28.4848C141.018 25.3108 138.306 23.3141 135.555 23.3141ZM135.62 31.3408H132.083V25.6305H135.62C137.474 25.6305 138.533 27.1709 138.533 28.4848C138.533 29.7738 137.474 31.3408 135.62 31.3408ZM150.97 28.9478C149.176 28.9478 147.311 29.7405 146.543 31.4973L148.747 32.4216C149.221 31.4973 150.093 31.1976 151.015 31.1976C152.304 31.1976 153.61 31.9719 153.63 33.3391V33.514C153.181 33.2542 152.219 32.8695 151.035 32.8695C148.662 32.8695 146.244 34.1768 146.244 36.6164C146.244 38.8479 148.188 40.2851 150.373 40.2851C152.044 40.2851 152.966 39.5307 153.545 38.6531H153.63V39.9404H156.029V33.5523C156.029 30.5997 153.825 28.9478 150.97 28.9478ZM150.671 38.0736C149.859 38.0736 148.727 37.6706 148.727 36.6631C148.727 35.3741 150.138 34.8795 151.36 34.8795C152.453 34.8795 152.966 35.121 153.63 35.4391C153.435 36.9811 152.109 38.0736 150.671 38.0736ZM164.766 29.3125L161.912 36.5315H161.827L158.876 29.3125H156.198L160.632 39.4008L158.102 45.0145H160.697L167.529 29.3125H164.766ZM142.382 39.967H144.872V23.3141H142.382V39.967Z" fill="white"/>
<path d="M13.8942 10.0434C13.5031 10.4531 13.2767 11.0909 13.2767 11.9169V41.3792C13.2767 42.2051 13.5031 42.8429 13.8942 43.2526L13.9908 43.3425L30.4914 26.8395V26.4498L13.9908 9.94682L13.8942 10.0434Z" fill="url(#paint0_linear_2_35)"/>
<path d="M35.9854 32.3433L30.4913 26.8395V26.4498L35.9921 20.946L36.1153 21.0176L42.6296 24.7262C44.4887 25.7787 44.4887 27.5106 42.6296 28.5697L36.1153 32.2717L35.9854 32.3433Z" fill="url(#paint1_linear_2_35)"/>
<path d="M36.1153 32.2716L30.4914 26.6446L13.8942 43.2525C14.5117 43.902 15.5187 43.9803 16.6637 43.3308L36.1153 32.2716Z" fill="url(#paint2_linear_2_35)"/>
<path d="M36.1153 21.0178L16.6637 9.95858C15.5187 9.31578 14.5117 9.39405 13.8942 10.0435L30.4914 26.6448L36.1153 21.0178Z" fill="url(#paint3_linear_2_35)"/>
<defs>
<linearGradient id="paint0_linear_2_35" x1="29.0263" y1="41.686" x2="6.66827" y2="19.3402" gradientUnits="userSpaceOnUse">
<stop stop-color="#00A0FF"/>
<stop offset="0.0066" stop-color="#00A1FF"/>
<stop offset="0.2601" stop-color="#00BEFF"/>
<stop offset="0.5122" stop-color="#00D2FF"/>
<stop offset="0.7604" stop-color="#00DFFF"/>
<stop offset="1" stop-color="#00E3FF"/>
</linearGradient>
<linearGradient id="paint1_linear_2_35" x1="45.0505" y1="26.6428" x2="12.8323" y2="26.6428" gradientUnits="userSpaceOnUse">
<stop stop-color="#FFE000"/>
<stop offset="0.4087" stop-color="#FFBD00"/>
<stop offset="0.7754" stop-color="#FFA500"/>
<stop offset="1" stop-color="#FF9C00"/>
</linearGradient>
<linearGradient id="paint2_linear_2_35" x1="33.0572" y1="23.5857" x2="2.73787" y2="-6.71702" gradientUnits="userSpaceOnUse">
<stop stop-color="#FF3A44"/>
<stop offset="1" stop-color="#C31162"/>
</linearGradient>
<linearGradient id="paint3_linear_2_35" x1="9.71638" y1="53.0547" x2="23.2553" y2="39.5233" gradientUnits="userSpaceOnUse">
<stop stop-color="#32A071"/>
<stop offset="0.0685" stop-color="#2DA771"/>
<stop offset="0.4762" stop-color="#15CF74"/>
<stop offset="0.8009" stop-color="#06E775"/>
<stop offset="1" stop-color="#00F076"/>
</linearGradient>
</defs>
</svg>
